<?xml version="1.0" encoding="UTF-8"?>
<svg version="1.1" xmlns="http://www.w3.org/2000/svg" width="256" height="256">
<path d="M0 0 C1.00050906 -0.00865438 2.00101812 -0.01730876 3.03184563 -0.02622539 C6.38865421 -0.0478382 9.74380989 -0.02650829 13.1006012 -0.00532532 C15.50537408 -0.01181748 17.9101412 -0.02087775 20.31489563 -0.03231812 C26.17115699 -0.05302874 32.02698242 -0.04566708 37.88320618 -0.02481725 C42.64327314 -0.00853125 47.40320986 -0.00433414 52.16330147 -0.00878334 C52.84085518 -0.00941402 53.5184089 -0.01004469 54.21649455 -0.01069448 C55.59295752 -0.01204054 56.96942047 -0.01342011 58.34588338 -0.01483283 C71.25330347 -0.02676998 84.16046199 -0.00270359 97.06782252 0.03418525 C108.14020213 0.06507136 119.21228048 0.06745284 130.28468323 0.04838562 C143.14440942 0.02626602 156.00396676 0.02013665 168.8637014 0.04070824 C170.23539831 0.04287116 171.60709524 0.04502026 172.97879219 0.04715538 C173.9911239 0.04875493 173.9911239 0.04875493 175.02390675 0.05038679 C179.77710222 0.056853 184.53021073 0.05209394 189.28339958 0.04313087 C195.68323121 0.03148568 202.08266329 0.04668427 208.48242188 0.07987404 C210.83261267 0.0880896 213.1828508 0.08778755 215.53303719 0.07839584 C218.73891452 0.06699086 221.94317728 0.08631514 225.14892578 0.11352539 C226.08132047 0.1030539 227.01371515 0.09258241 227.97436422 0.08179361 C232.12201468 0.14747645 235.27426501 0.37612874 238.71507072 2.83075333 C241.62942329 6.34837499 241.98313194 8.8006734 241.89312744 13.18753052 C241.90610901 14.29627308 241.90610901 14.29627308 241.91935283 15.42741448 C241.94091466 17.89997649 241.91966482 20.37028183 241.89845276 22.84281921 C241.90494708 24.6170611 241.9140089 26.39129517 241.92544556 28.16551208 C241.94853148 32.98185349 241.93380422 37.79740273 241.91097617 42.61371875 C241.89206394 47.65445763 241.90321807 52.6951432 241.90988159 57.73590088 C241.91622318 66.20216963 241.89794831 74.66812096 241.86524963 83.13432312 C241.82776685 92.92007544 241.82952822 102.70522606 241.85229081 112.49101013 C241.87324668 121.9059686 241.86596116 131.32070486 241.84597206 140.73565865 C241.83798882 144.74155593 241.8399743 148.74726512 241.84999657 152.75315666 C241.86055434 157.47215227 241.8464019 162.19044759 241.8132534 166.90933228 C241.80505102 168.64029601 241.80532456 170.37132396 241.8147316 172.10228157 C241.82617326 174.46757974 241.80676018 176.83070598 241.77960205 179.1958313 C241.79007354 179.87920529 241.80054503 180.56257929 241.81133384 181.26666158 C241.72168641 185.46401912 240.76837803 188.54462166 237.83240527 191.63486594 C234.31867704 193.9580105 230.35417377 193.57172481 226.27590942 193.51034546 C225.27540037 193.51899984 224.27489131 193.52765422 223.24406379 193.53657085 C219.88725521 193.55818366 216.53209954 193.53685375 213.17530823 193.51567078 C210.77053535 193.52216294 208.36576822 193.53122321 205.96101379 193.54266357 C200.10475243 193.5633742 194.24892701 193.55601254 188.39270324 193.53516271 C183.63263628 193.51887671 178.87269957 193.5146796 174.11260796 193.5191288 C173.43505424 193.51975947 172.75750052 193.52039015 172.05941487 193.52103994 C170.6829519 193.522386 169.30648896 193.52376557 167.93002605 193.52517829 C155.02260596 193.53711544 142.11544743 193.51304905 129.2080869 193.47616021 C118.1357073 193.4452741 107.06362895 193.44289262 95.9912262 193.46195984 C83.1315 193.48407944 70.27194266 193.49020881 57.41220802 193.46963722 C56.04051111 193.4674743 54.66881418 193.4653252 53.29711723 193.46319008 C52.28478553 193.46159053 52.28478553 193.46159053 51.25200268 193.45995867 C46.4988072 193.45349245 41.74569869 193.45825152 36.99250984 193.46721458 C30.59267821 193.47885978 24.19324614 193.46366119 17.79348755 193.43047142 C15.44329675 193.42225586 13.09305863 193.4225579 10.74287224 193.43194962 C7.5369949 193.4433546 4.33273215 193.42403032 1.12698364 193.39682007 C0.19458896 193.40729156 -0.73780573 193.41776305 -1.6984548 193.42855185 C-5.84610526 193.362869 -8.99835559 193.13421672 -12.4391613 190.67959213 C-15.35351387 187.16197047 -15.70722251 184.70967206 -15.61721802 180.32281494 C-15.63019958 179.21407238 -15.63019958 179.21407238 -15.64344341 178.08293098 C-15.66500524 175.61036897 -15.6437554 173.14006363 -15.62254333 170.66752625 C-15.62903766 168.89328436 -15.63809948 167.11905029 -15.64953613 165.34483337 C-15.67262206 160.52849196 -15.6578948 155.71294273 -15.63506675 150.89662671 C-15.61615451 145.85588783 -15.62730864 140.81520226 -15.63397217 135.77444458 C-15.64031375 127.30817583 -15.62203888 118.84222449 -15.58934021 110.37602234 C-15.55185743 100.59027002 -15.5536188 90.8051194 -15.57638139 81.01933533 C-15.59733725 71.60437686 -15.59005173 62.1896406 -15.57006264 52.77468681 C-15.5620794 48.76878953 -15.56406488 44.76308034 -15.57408714 40.7571888 C-15.58464491 36.03819319 -15.57049248 31.31989787 -15.53734398 26.60101318 C-15.52914159 24.87004945 -15.52941514 23.1390215 -15.53882217 21.40806389 C-15.55026383 19.04276571 -15.53085076 16.67963948 -15.50369263 14.31451416 C-15.51416412 13.63114017 -15.5246356 12.94776617 -15.53542441 12.24368387 C-15.44577699 8.04632634 -14.49246861 4.9657238 -11.55649585 1.87547952 C-8.04276761 -0.44766504 -4.07826434 -0.06137935 0 0 Z " fill="#F9F9F9" transform="translate(14.862045288085938,31.244827270507813)"/>
<path d="M0 0 C1.96453125 0.00193359 1.96453125 0.00193359 3.96875 0.00390625 C7.60912331 0.45089899 9.0907478 0.71170372 11.5 3.4375 C12.29296875 6.03125 12.29296875 6.03125 12.6875 8.9375 C13.11956669 11.94177677 13.53754799 14.55014396 14.5 17.4375 C15.634375 17.128125 16.76875 16.81875 17.9375 16.5 C27.12652538 14.26394942 27.12652538 14.26394942 31.5 14.4375 C35.78108479 17.05371848 38.60857764 22.84072354 40.5 27.4375 C40.921875 29.97265625 40.921875 29.97265625 40.5 32.4375 C38.3307536 34.71004384 35.96095838 36.46738371 33.46875 38.375 C31.29879025 40.28442206 31.29879025 40.28442206 30.97265625 42.97265625 C31.81735752 46.92085257 34.52225012 48.20510811 37.65234375 50.49609375 C40.15686453 53.12769381 40.41008528 54.83191976 40.5 58.4375 C39.42578125 61.32421875 39.42578125 61.32421875 37.8125 64.125 C37.29300781 65.05699219 36.77351563 65.98898438 36.23828125 66.94921875 C34.50315629 69.43298189 33.10612067 70.91297091 30.5 72.4375 C27.2938312 72.23285093 24.87570627 71.60244421 21.9375 70.3125 C19.01439075 69.26317873 17.4699147 69.73578971 14.5 70.4375 C14.31824219 71.26894531 14.13648438 72.10039062 13.94921875 72.95703125 C13.69785156 74.04371094 13.44648437 75.13039063 13.1875 76.25 C12.94386719 77.32894531 12.70023438 78.40789062 12.44921875 79.51953125 C11.01833499 83.91817393 11.01833499 83.91817393 8.5 85.4375 C5.75527967 85.7633438 3.30270623 85.90198502 0.5625 85.875 C-0.15357422 85.89498047 -0.86964844 85.91496094 -1.60742188 85.93554688 C-5.01682857 85.93238709 -7.11519009 85.70742284 -9.93359375 83.73046875 C-11.68664697 81.16427862 -12.19540528 79.3745049 -12.625 76.3125 C-13.09621269 72.4243939 -13.09621269 72.4243939 -15.5 69.4375 C-18.99319511 69.70113737 -21.89789828 70.1794564 -25.125 71.5625 C-28.10814968 72.66155515 -29.48512448 72.38713969 -32.5 71.4375 C-36.75875259 67.21643549 -39.63304039 61.57268308 -40.01953125 55.56640625 C-39.1219724 51.88843953 -36.24078334 50.27157238 -33.34765625 48.046875 C-31.24162792 46.48440901 -31.24162792 46.48440901 -30.5 43.5 C-31.63561328 40.02218432 -32.85592536 38.95521216 -35.5 36.5 C-39.39060613 32.83131793 -39.39060613 32.83131793 -40.4375 29.0625 C-38.99690889 23.49221437 -35.581191 18.518691 -31.5 14.4375 C-29.50390625 14.5234375 -29.50390625 14.5234375 -27.0625 14.8125 C-26.25941406 14.90273437 -25.45632812 14.99296875 -24.62890625 15.0859375 C-22.5 15.4375 -22.5 15.4375 -20.5 16.4375 C-18.50039988 16.477492 -16.49952758 16.48096799 -14.5 16.4375 C-14.32984375 15.61765625 -14.1596875 14.7978125 -13.984375 13.953125 C-13.74203125 12.87546875 -13.4996875 11.7978125 -13.25 10.6875 C-13.01796875 9.62015625 -12.7859375 8.5528125 -12.546875 7.453125 C-10.1939711 0.67535706 -6.88347982 -0.10162618 0 0 Z " fill="#A1AAB3" transform="translate(108.5,66.5625)"/>
<path d="M0 0 C1.00050906 -0.00865438 2.00101812 -0.01730876 3.03184563 -0.02622539 C6.38865421 -0.0478382 9.74380989 -0.02650829 13.1006012 -0.00532532 C15.50537408 -0.01181748 17.9101412 -0.02087775 20.31489563 -0.03231812 C26.17115699 -0.05302874 32.02698242 -0.04566708 37.88320618 -0.02481725 C42.64327314 -0.00853125 47.40320986 -0.00433414 52.16330147 -0.00878334 C52.84085518 -0.00941402 53.5184089 -0.01004469 54.21649455 -0.01069448 C55.59295752 -0.01204054 56.96942047 -0.01342011 58.34588338 -0.01483283 C71.25330347 -0.02676998 84.16046199 -0.00270359 97.06782252 0.03418525 C108.14020213 0.06507136 119.21228048 0.06745284 130.28468323 0.04838562 C143.14440942 0.02626602 156.00396676 0.02013665 168.8637014 0.04070824 C170.23539831 0.04287116 171.60709524 0.04502026 172.97879219 0.04715538 C173.9911239 0.04875493 173.9911239 0.04875493 175.02390675 0.05038679 C179.77710222 0.056853 184.53021073 0.05209394 189.28339958 0.04313087 C195.68323121 0.03148568 202.08266329 0.04668427 208.48242188 0.07987404 C210.83261267 0.0880896 213.1828508 0.08778755 215.53303719 0.07839584 C218.73891452 0.06699086 221.94317728 0.08631514 225.14892578 0.11352539 C226.08132047 0.1030539 227.01371515 0.09258241 227.97436422 0.08179361 C232.12201468 0.14747645 235.27426501 0.37612874 238.71507072 2.83075333 C241.62942329 6.34837499 241.98313194 8.8006734 241.89312744 13.18753052 C241.90610901 14.29627308 241.90610901 14.29627308 241.91935283 15.42741448 C241.94091466 17.89997649 241.91966482 20.37028183 241.89845276 22.84281921 C241.90494708 24.6170611 241.9140089 26.39129517 241.92544556 28.16551208 C241.94853148 32.98185349 241.93380422 37.79740273 241.91097617 42.61371875 C241.89206394 47.65445763 241.90321807 52.6951432 241.90988159 57.73590088 C241.91622318 66.20216963 241.89794831 74.66812096 241.86524963 83.13432312 C241.82776685 92.92007544 241.82952822 102.70522606 241.85229081 112.49101013 C241.87324668 121.9059686 241.86596116 131.32070486 241.84597206 140.73565865 C241.83798882 144.74155593 241.8399743 148.74726512 241.84999657 152.75315666 C241.86055434 157.47215227 241.8464019 162.19044759 241.8132534 166.90933228 C241.80505102 168.64029601 241.80532456 170.37132396 241.8147316 172.10228157 C241.82617326 174.46757974 241.80676018 176.83070598 241.77960205 179.1958313 C241.79007354 179.87920529 241.80054503 180.56257929 241.81133384 181.26666158 C241.72168641 185.46401912 240.76837803 188.54462166 237.83240527 191.63486594 C234.31867704 193.9580105 230.35417377 193.57172481 226.27590942 193.51034546 C225.27540037 193.51899984 224.27489131 193.52765422 223.24406379 193.53657085 C219.88725521 193.55818366 216.53209954 193.53685375 213.17530823 193.51567078 C210.77053535 193.52216294 208.36576822 193.53122321 205.96101379 193.54266357 C200.10475243 193.5633742 194.24892701 193.55601254 188.39270324 193.53516271 C183.63263628 193.51887671 178.87269957 193.5146796 174.11260796 193.5191288 C173.43505424 193.51975947 172.75750052 193.52039015 172.05941487 193.52103994 C170.6829519 193.522386 169.30648896 193.52376557 167.93002605 193.52517829 C155.02260596 193.53711544 142.11544743 193.51304905 129.2080869 193.47616021 C118.1357073 193.4452741 107.06362895 193.44289262 95.9912262 193.46195984 C83.1315 193.48407944 70.27194266 193.49020881 57.41220802 193.46963722 C56.04051111 193.4674743 54.66881418 193.4653252 53.29711723 193.46319008 C52.28478553 193.46159053 52.28478553 193.46159053 51.25200268 193.45995867 C46.4988072 193.45349245 41.74569869 193.45825152 36.99250984 193.46721458 C30.59267821 193.47885978 24.19324614 193.46366119 17.79348755 193.43047142 C15.44329675 193.42225586 13.09305863 193.4225579 10.74287224 193.43194962 C7.5369949 193.4433546 4.33273215 193.42403032 1.12698364 193.39682007 C0.19458896 193.40729156 -0.73780573 193.41776305 -1.6984548 193.42855185 C-5.84610526 193.362869 -8.99835559 193.13421672 -12.4391613 190.67959213 C-15.35351387 187.16197047 -15.70722251 184.70967206 -15.61721802 180.32281494 C-15.63019958 179.21407238 -15.63019958 179.21407238 -15.64344341 178.08293098 C-15.66500524 175.61036897 -15.6437554 173.14006363 -15.62254333 170.66752625 C-15.62903766 168.89328436 -15.63809948 167.11905029 -15.64953613 165.34483337 C-15.67262206 160.52849196 -15.6578948 155.71294273 -15.63506675 150.89662671 C-15.61615451 145.85588783 -15.62730864 140.81520226 -15.63397217 135.77444458 C-15.64031375 127.30817583 -15.62203888 118.84222449 -15.58934021 110.37602234 C-15.55185743 100.59027002 -15.5536188 90.8051194 -15.57638139 81.01933533 C-15.59733725 71.60437686 -15.59005173 62.1896406 -15.57006264 52.77468681 C-15.5620794 48.76878953 -15.56406488 44.76308034 -15.57408714 40.7571888 C-15.58464491 36.03819319 -15.57049248 31.31989787 -15.53734398 26.60101318 C-15.52914159 24.87004945 -15.52941514 23.1390215 -15.53882217 21.40806389 C-15.55026383 19.04276571 -15.53085076 16.67963948 -15.50369263 14.31451416 C-15.51416412 13.63114017 -15.5246356 12.94776617 -15.53542441 12.24368387 C-15.44577699 8.04632634 -14.49246861 4.9657238 -11.55649585 1.87547952 C-8.04276761 -0.44766504 -4.07826434 -0.06137935 0 0 Z M-11.86204529 12.75517273 C-12.17097796 15.80248175 -12.17097796 15.80248175 -12.1227417 19.45385742 C-12.12656725 20.1503259 -12.13039279 20.84679437 -12.13433427 21.56436795 C-12.14469382 23.90970213 -12.14066657 26.25479284 -12.13670349 28.60014343 C-12.14104843 30.27703581 -12.14623084 31.95392619 -12.15219116 33.6308136 C-12.16561816 38.19495716 -12.16615558 42.7590181 -12.16362786 47.32317758 C-12.16256033 51.13033633 -12.16743609 54.93747822 -12.17223328 58.74463338 C-12.18334195 67.72659349 -12.1837587 76.7085118 -12.17771912 85.69047546 C-12.17168144 94.96084459 -12.18398198 104.23106185 -12.20528919 113.50140506 C-12.22289821 121.45475843 -12.22890752 129.40806344 -12.22565144 137.36143559 C-12.22383682 142.11404907 -12.22649231 146.8665543 -12.24036598 151.61915016 C-12.25292782 156.09003832 -12.25101584 160.56068979 -12.23795509 165.03157425 C-12.23558591 166.67267244 -12.23833624 168.3137872 -12.24657822 169.95486641 C-12.25701911 172.19536558 -12.24896702 174.43506675 -12.23626709 176.67553711 C-12.23643483 177.92934331 -12.23660257 179.18314951 -12.2367754 180.47494984 C-11.83060048 184.03042679 -11.00496054 185.91863581 -8.86204529 188.75517273 C-5.40034573 190.48602251 -1.39243115 189.89920084 2.41818237 189.89561462 C3.39233241 189.89858575 4.36648244 189.90155687 5.37015218 189.90461802 C8.65514764 189.91333369 11.94010678 189.91481569 15.22511292 189.91630554 C17.57194599 189.92093168 19.91877831 189.92595606 22.26560974 189.93135071 C29.32307413 189.9458682 36.38053072 189.95186156 43.43800738 189.95674622 C46.76017787 189.95932247 50.08234685 189.96314053 53.40451622 189.96686554 C64.44579192 189.97905972 75.48706568 189.98935855 86.52834797 189.99274063 C87.58874452 189.99306998 87.58874452 189.99306998 88.67056323 189.99340598 C89.3792023 189.99362426 90.08784138 189.99384254 90.81795436 189.99406743 C92.25396685 189.9945109 93.68997934 189.99495746 95.12599182 189.9954071 C96.19446338 189.99573925 96.19446338 189.99573925 97.28452023 189.9960781 C108.82702741 190.00002626 120.36947147 190.01748011 131.91195426 190.04076663 C143.75796424 190.06447288 155.60394253 190.07694216 167.44997662 190.07810855 C174.10288526 190.07902575 180.75572122 190.08510695 187.40860939 190.10292816 C193.66547312 190.11936189 199.92218051 190.1215872 206.17905807 190.11278915 C208.47808309 190.11201626 210.77711635 190.1163945 213.07612038 190.12624741 C216.20986043 190.13889215 219.34304053 190.13313064 222.47677612 190.12266541 C223.39078432 190.13072181 224.30479252 190.13877821 225.24649793 190.14707875 C230.01809237 190.10970112 233.28568621 189.90600279 237.13795471 186.75517273 C238.59941528 183.8322516 238.26733796 181.26372076 238.27166748 177.99833679 C238.27506582 176.94433371 238.27506582 176.94433371 238.2785328 175.86903763 C238.28488783 173.50294118 238.28404249 171.13690179 238.28321838 168.77079773 C238.2862089 167.07918727 238.28961118 165.3875775 238.293396 163.69596863 C238.30225017 159.09279016 238.30457468 154.48963026 238.30521178 149.88644409 C238.30615959 146.04918342 238.30983633 142.21192712 238.31338388 138.37466812 C238.32153349 129.32571951 238.32396761 120.27678084 238.32325745 111.22782898 C238.32265621 101.87904621 238.3332161 92.53032106 238.34900111 83.18155289 C238.36205462 75.16625826 238.36744228 67.15098252 238.36680204 59.13567734 C238.36654644 54.34349799 238.36943131 49.55136985 238.37998009 44.75920105 C238.38962458 40.2547182 238.38976551 35.75033589 238.38246346 31.24584961 C238.38141311 29.5889776 238.38380693 27.93209945 238.38982391 26.27523804 C238.39748362 24.02070802 238.39293955 21.7665305 238.38519287 19.51200867 C238.38573764 18.24806274 238.38628241 16.98411682 238.38684368 15.68186951 C238.4441697 12.63162309 238.4441697 12.63162309 236.13795471 10.75517273 C234.24828844 10.45332883 234.24828844 10.45332883 232.05557251 10.50349045 C231.1959085 10.49827495 230.33624449 10.49305946 229.45053005 10.48768592 C228.02555501 10.49437808 228.02555501 10.49437808 226.5717926 10.50120544 C225.566941 10.49808546 224.56208941 10.49496548 223.52678776 10.49175096 C220.13800362 10.48373265 216.74939664 10.4901095 213.36061096 10.49638367 C210.93994542 10.49367551 208.5192807 10.49011557 206.09861755 10.48576355 C200.19329696 10.47756774 194.28802287 10.47879888 188.38270354 10.48458883 C183.58489931 10.48909884 178.78710933 10.4897211 173.98930359 10.4875412 C172.96646793 10.4870815 172.96646793 10.4870815 171.92296892 10.48661251 C170.53788145 10.48597309 169.15279398 10.48532466 167.76770651 10.48466733 C154.76847664 10.4789592 141.76927494 10.48552949 128.77004969 10.49626806 C117.60718881 10.50520402 106.44436953 10.50365211 95.2815094 10.49443054 C82.32996529 10.48373642 69.3784459 10.47950857 56.426898 10.48565507 C55.04680062 10.48629219 53.66670323 10.48692093 52.28660583 10.4875412 C51.60750611 10.48784975 50.92840638 10.4881583 50.22872788 10.4884762 C45.43463968 10.49020572 40.6405671 10.48728252 35.84648132 10.48258209 C29.39841126 10.47639919 22.95040144 10.48077788 16.50233841 10.49237061 C14.12949378 10.49502527 11.75664256 10.49423847 9.38380051 10.48984528 C6.15714827 10.48442008 2.9307525 10.49118701 -0.29588318 10.50120544 C-1.24586654 10.496744 -2.1958499 10.49228256 -3.17462063 10.48768592 C-4.46411664 10.49550916 -4.46411664 10.49550916 -5.77966309 10.50349045 C-6.52510911 10.50381515 -7.27055513 10.50413986 -8.03859043 10.5044744 C-10.11213898 10.60246224 -10.11213898 10.60246224 -11.86204529 12.75517273 Z " fill="#797774" transform="translate(14.862045288085938,31.244827270507813)"/>
<path d="M0 0 C1.24652344 -0.03996094 2.49304688 -0.07992187 3.77734375 -0.12109375 C7.0625 0.4375 7.0625 0.4375 8.9296875 2.7578125 C10.13698636 5.61369877 11.16525422 8.46968704 12.0625 11.4375 C12.76375 11.293125 13.465 11.14875 14.1875 11 C15.13625 10.814375 16.085 10.62875 17.0625 10.4375 C18.031875 10.1075 19.00125 9.7775 20 9.4375 C23.0625 9.4375 23.0625 9.4375 24.7421875 10.86328125 C27.79830115 14.39462789 29.87825648 17.04251335 30.5 21.75 C30.03367122 25.68048539 29.90297573 26.03578469 27.0625 28.375 C26.0725 29.055625 25.0825 29.73625 24.0625 30.4375 C24.19284494 32.30803397 24.19284494 32.30803397 25.0625 34.4375 C25.92875 34.994375 26.795 35.55125 27.6875 36.125 C30.0625 38.4375 30.0625 38.4375 30.34375 40.48046875 C30.07321222 44.51824506 29.2771039 47.70590963 26.875 51 C24.0625 53.4375 24.0625 53.4375 21.1875 53.875 C20.15625 53.730625 19.125 53.58625 18.0625 53.4375 C16.78375 53.2725 15.505 53.1075 14.1875 52.9375 C13.15625 52.7725 12.125 52.6075 11.0625 52.4375 C10.94132812 53.06398437 10.82015625 53.69046875 10.6953125 54.3359375 C10.44394531 55.56183594 10.44394531 55.56183594 10.1875 56.8125 C10.02507812 57.62460938 9.86265625 58.43671875 9.6953125 59.2734375 C9.0625 61.4375 9.0625 61.4375 7.0625 63.4375 C4.12890625 63.73828125 4.12890625 63.73828125 0.625 63.75 C-1.10556641 63.77513672 -1.10556641 63.77513672 -2.87109375 63.80078125 C-5.9375 63.4375 -5.9375 63.4375 -7.7734375 62.1796875 C-9.79877604 59.14847613 -10.18255254 55.97994575 -10.9375 52.4375 C-11.75734375 52.55609375 -12.5771875 52.6746875 -13.421875 52.796875 C-14.49953125 52.92578125 -15.5771875 53.0546875 -16.6875 53.1875 C-17.75484375 53.32671875 -18.8221875 53.4659375 -19.921875 53.609375 C-22.9375 53.4375 -22.9375 53.4375 -25.21484375 51.63671875 C-27.86948088 48.24769221 -29.9375 45.28395167 -29.9375 40.875 C-28.9375 38.4375 -28.9375 38.4375 -26.3125 35.9375 C-23.67886236 33.70903558 -23.67886236 33.70903558 -23.8125 30.9375 C-24.84767903 28.2039605 -24.84767903 28.2039605 -27.5625 26 C-29.9375 23.4375 -29.9375 23.4375 -30.125 20.625 C-28.49990468 16.26290204 -25.89159095 12.9968634 -22.9375 9.4375 C-21.9165625 9.6540625 -21.9165625 9.6540625 -20.875 9.875 C-17.57476918 10.50695909 -14.26605574 10.98063941 -10.9375 11.4375 C-10.81632812 10.81101563 -10.69515625 10.18453125 -10.5703125 9.5390625 C-10.40273437 8.72179687 -10.23515625 7.90453125 -10.0625 7.0625 C-9.90007812 6.25039062 -9.73765625 5.43828125 -9.5703125 4.6015625 C-8.07642572 -0.50716142 -4.6884087 0.08225278 0 0 Z " fill="#5B6468" transform="translate(156.9375,136.5625)"/>
<path d="M0 0 C2.57559085 1.93169314 4.06262561 3.52403578 4.5859375 6.7734375 C4.65639369 10.90217052 4.6174057 13.09965089 2.375 16.6875 C-0.92496535 19.79334974 -3.18879268 19.97196399 -7.71484375 19.90625 C-10.68774757 19.58670564 -12.45998159 18.57339752 -14.75 16.6875 C-17.32189679 13.25830428 -17.252142 9.84810514 -16.75 5.6875 C-12.95001352 -0.86016901 -7.04084706 -3.36040428 0 0 Z " fill="#F8F8F8" transform="translate(114.75,100.3125)"/>
<path d="M0 0 C3.84262325 1.67070576 5.4730663 3.1410221 7 7 C7.22213813 11.20581532 6.67253041 14.87911598 4.5 18.5 C0.80006977 20.71995814 -2.71198667 21.19908633 -7 21 C-9.95478038 19.80551431 -11.37655368 18.80157384 -13.3125 16.3125 C-14.34258338 12.84767407 -14.5914722 9.54883321 -14 6 C-10.25014665 0.12522975 -6.78149684 -0.72891329 0 0 Z " fill="#F6F6F7" transform="translate(161,158)"/>
</svg>
